<svg width="22" height="22" viewBox="0 0 22 22" fill="none" xmlns="http://www.w3.org/2000/svg">
<g clip-path="url(#clip0_1998_8884)">
<path d="M5.68425 19.25H1.69331V6.39787H5.68425V19.25ZM3.68637 4.64475C2.41038 4.64475 1.375 3.58737 1.375 2.31137C1.375 1.69836 1.61852 1.11045 2.05199 0.676986C2.48545 0.243519 3.07336 0 3.68637 0C4.29939 0 4.8873 0.243519 5.32076 0.676986C5.75423 1.11045 5.99775 1.69836 5.99775 2.31137C5.99775 3.58737 4.96237 4.64475 3.68637 4.64475ZM20.6209 19.25H16.6389V12.9937C16.6389 11.5026 16.6086 9.59062 14.564 9.59062C12.4891 9.59062 12.1708 11.2104 12.1708 12.8865V19.25H8.184V6.39787H12.0113V8.151H12.067C12.5998 7.14106 13.9013 6.07544 15.8428 6.07544C19.8818 6.07544 20.6243 8.73538 20.6243 12.1901V19.25H20.6209Z" fill="#343434"/>
</g>
<defs>
<clipPath id="clip0_1998_8884">
<rect width="22" height="22" fill="white"/>
</clipPath>
</defs>
</svg>
